<svg id="visual" viewBox="0 0 1280 675" width="1280" height="675" xmlns="http://www.w3.org/2000/svg" xmlns:xlink="http://www.w3.org/1999/xlink" version="1.1"><rect x="0" y="0" width="1280" height="675" fill="#fff"></rect><defs><linearGradient id="grad1_0" x1="47.3%" y1="0%" x2="100%" y2="100%"><stop offset="12.074074074074073%" stop-color="#000000" stop-opacity="1"></stop><stop offset="87.92592592592592%" stop-color="#000000" stop-opacity="1"></stop></linearGradient></defs><defs><linearGradient id="grad1_1" x1="47.3%" y1="0%" x2="100%" y2="100%"><stop offset="12.074074074074073%" stop-color="#000000" stop-opacity="1"></stop><stop offset="87.92592592592592%" stop-color="#4e4e4e" stop-opacity="1"></stop></linearGradient></defs><defs><linearGradient id="grad1_2" x1="47.3%" y1="0%" x2="100%" y2="100%"><stop offset="12.074074074074073%" stop-color="#a2a2a2" stop-opacity="1"></stop><stop offset="87.92592592592592%" stop-color="#4e4e4e" stop-opacity="1"></stop></linearGradient></defs><defs><linearGradient id="grad1_3" x1="47.3%" y1="0%" x2="100%" y2="100%"><stop offset="12.074074074074073%" stop-color="#a2a2a2" stop-opacity="1"></stop><stop offset="87.92592592592592%" stop-color="#ffffff" stop-opacity="1"></stop></linearGradient></defs><defs><linearGradient id="grad2_0" x1="0%" y1="0%" x2="52.7%" y2="100%"><stop offset="12.074074074074073%" stop-color="#000000" stop-opacity="1"></stop><stop offset="87.92592592592592%" stop-color="#000000" stop-opacity="1"></stop></linearGradient></defs><defs><linearGradient id="grad2_1" x1="0%" y1="0%" x2="52.7%" y2="100%"><stop offset="12.074074074074073%" stop-color="#4e4e4e" stop-opacity="1"></stop><stop offset="87.92592592592592%" stop-color="#000000" stop-opacity="1"></stop></linearGradient></defs><defs><linearGradient id="grad2_2" x1="0%" y1="0%" x2="52.7%" y2="100%"><stop offset="12.074074074074073%" stop-color="#4e4e4e" stop-opacity="1"></stop><stop offset="87.92592592592592%" stop-color="#a2a2a2" stop-opacity="1"></stop></linearGradient></defs><defs><linearGradient id="grad2_3" x1="0%" y1="0%" x2="52.7%" y2="100%"><stop offset="12.074074074074073%" stop-color="#ffffff" stop-opacity="1"></stop><stop offset="87.92592592592592%" stop-color="#a2a2a2" stop-opacity="1"></stop></linearGradient></defs><g transform="translate(1280, 0)"><path d="M0 405C-41.6 366 -83.3 327 -126.7 305.8C-170.1 284.6 -215.2 281 -260.2 260.2C-305.2 239.4 -350.1 201.2 -374.2 155C-398.3 108.7 -401.6 54.4 -405 0L0 0Z" fill="#d0d0d0"></path><path d="M0 303.8C-31.2 274.5 -62.5 245.3 -95 229.4C-127.5 213.4 -161.4 210.8 -195.2 195.2C-228.9 179.5 -262.5 150.9 -280.6 116.2C-298.7 81.5 -301.2 40.8 -303.7 0L0 0Z" fill="#777777"></path><path d="M0 202.5C-20.8 183 -41.6 163.5 -63.3 152.9C-85 142.3 -107.6 140.5 -130.1 130.1C-152.6 119.7 -175 100.6 -187.1 77.5C-199.1 54.4 -200.8 27.2 -202.5 0L0 0Z" fill="#292929"></path><path d="M0 101.3C-10.4 91.5 -20.8 81.8 -31.7 76.5C-42.5 71.1 -53.8 70.3 -65.1 65.1C-76.3 59.8 -87.5 50.3 -93.5 38.7C-99.6 27.2 -100.4 13.6 -101.2 0L0 0Z" fill="#000000"></path></g><g transform="translate(0, 675)"><path d="M0 -405C58.1 -404.1 116.1 -403.1 155 -374.2C193.9 -345.2 213.5 -288.3 249.6 -249.6C285.7 -210.9 338.1 -190.5 366.8 -151.9C395.4 -113.4 400.2 -56.7 405 0L0 0Z" fill="#d0d0d0"></path><path d="M0 -303.7C43.5 -303 87.1 -302.3 116.2 -280.6C145.4 -258.9 160.2 -216.2 187.2 -187.2C214.3 -158.2 253.6 -142.9 275.1 -113.9C296.6 -85 300.2 -42.5 303.8 0L0 0Z" fill="#777777"></path><path d="M0 -202.5C29 -202 58.1 -201.6 77.5 -187.1C96.9 -172.6 106.8 -144.1 124.8 -124.8C142.8 -105.5 169.1 -95.2 183.4 -76C197.7 -56.7 200.1 -28.3 202.5 0L0 0Z" fill="#292929"></path><path d="M0 -101.2C14.5 -101 29 -100.8 38.7 -93.5C48.5 -86.3 53.4 -72.1 62.4 -62.4C71.4 -52.7 84.5 -47.6 91.7 -38C98.9 -28.3 100.1 -14.2 101.3 0L0 0Z" fill="#000000"></path></g></svg>