<svg id="visual" viewBox="0 0 1280 675" width="1280" height="675" xmlns="http://www.w3.org/2000/svg" xmlns:xlink="http://www.w3.org/1999/xlink" version="1.1"><rect x="0" y="0" width="1280" height="675" fill="#fff"></rect><defs><linearGradient id="grad1_0" x1="47.3%" y1="100%" x2="100%" y2="0%"><stop offset="12.074074074074073%" stop-color="#000000" stop-opacity="1"></stop><stop offset="87.92592592592592%" stop-color="#000000" stop-opacity="1"></stop></linearGradient></defs><defs><linearGradient id="grad1_1" x1="47.3%" y1="100%" x2="100%" y2="0%"><stop offset="12.074074074074073%" stop-color="#000000" stop-opacity="1"></stop><stop offset="87.92592592592592%" stop-color="#4e4e4e" stop-opacity="1"></stop></linearGradient></defs><defs><linearGradient id="grad1_2" x1="47.3%" y1="100%" x2="100%" y2="0%"><stop offset="12.074074074074073%" stop-color="#a2a2a2" stop-opacity="1"></stop><stop offset="87.92592592592592%" stop-color="#4e4e4e" stop-opacity="1"></stop></linearGradient></defs><defs><linearGradient id="grad1_3" x1="47.3%" y1="100%" x2="100%" y2="0%"><stop offset="12.074074074074073%" stop-color="#a2a2a2" stop-opacity="1"></stop><stop offset="87.92592592592592%" stop-color="#ffffff" stop-opacity="1"></stop></linearGradient></defs><defs><linearGradient id="grad2_0" x1="0%" y1="100%" x2="52.7%" y2="0%"><stop offset="12.074074074074073%" stop-color="#000000" stop-opacity="1"></stop><stop offset="87.92592592592592%" stop-color="#000000" stop-opacity="1"></stop></linearGradient></defs><defs><linearGradient id="grad2_1" x1="0%" y1="100%" x2="52.7%" y2="0%"><stop offset="12.074074074074073%" stop-color="#4e4e4e" stop-opacity="1"></stop><stop offset="87.92592592592592%" stop-color="#000000" stop-opacity="1"></stop></linearGradient></defs><defs><linearGradient id="grad2_2" x1="0%" y1="100%" x2="52.7%" y2="0%"><stop offset="12.074074074074073%" stop-color="#4e4e4e" stop-opacity="1"></stop><stop offset="87.92592592592592%" stop-color="#a2a2a2" stop-opacity="1"></stop></linearGradient></defs><defs><linearGradient id="grad2_3" x1="0%" y1="100%" x2="52.7%" y2="0%"><stop offset="12.074074074074073%" stop-color="#ffffff" stop-opacity="1"></stop><stop offset="87.92592592592592%" stop-color="#a2a2a2" stop-opacity="1"></stop></linearGradient></defs><g transform="translate(1280, 675)"><path d="M-506.2 0C-508.1 -75.1 -509.9 -150.2 -467.7 -193.7C-425.5 -237.3 -339.3 -249.2 -288.5 -288.5C-237.7 -327.8 -222.4 -394.3 -180.2 -435.1C-138.1 -476 -69 -491.1 0 -506.2L0 0Z" fill="#d0d0d0"></path><path d="M-379.7 0C-381.1 -56.3 -382.4 -112.6 -350.8 -145.3C-319.1 -178 -254.5 -186.9 -216.4 -216.4C-178.3 -245.8 -166.8 -295.7 -135.2 -326.4C-103.6 -357 -51.8 -368.3 0 -379.7L0 0Z" fill="#777777"></path><path d="M-253.1 0C-254 -37.5 -255 -75.1 -233.9 -96.9C-212.8 -118.6 -169.6 -124.6 -144.2 -144.2C-118.9 -163.9 -111.2 -197.2 -90.1 -217.6C-69 -238 -34.5 -245.6 0 -253.1L0 0Z" fill="#292929"></path><path d="M-126.6 0C-127 -18.8 -127.5 -37.5 -116.9 -48.4C-106.4 -59.3 -84.8 -62.3 -72.1 -72.1C-59.4 -81.9 -55.6 -98.6 -45.1 -108.8C-34.5 -119 -17.3 -122.8 0 -126.6L0 0Z" fill="#000000"></path></g><g transform="translate(0, 0)"><path d="M506.3 0C504.5 72 502.7 144 467.7 193.7C432.7 243.5 364.5 271 316.1 316.1C267.7 361.1 239.2 423.6 189.8 458.2C140.4 492.9 70.2 499.6 0 506.3L0 0Z" fill="#d0d0d0"></path><path d="M379.7 0C378.4 54 377 108 350.8 145.3C324.5 182.6 273.3 203.3 237.1 237.1C200.8 270.8 179.4 317.7 142.4 343.7C105.3 369.6 52.7 374.7 0 379.7L0 0Z" fill="#777777"></path><path d="M253.1 0C252.2 36 251.4 72 233.9 96.9C216.4 121.7 182.2 135.5 158 158C133.8 180.6 119.6 211.8 94.9 229.1C70.2 246.4 35.1 249.8 0 253.1L0 0Z" fill="#292929"></path><path d="M126.6 0C126.1 18 125.7 36 116.9 48.4C108.2 60.9 91.1 67.8 79 79C66.9 90.3 59.8 105.9 47.5 114.6C35.1 123.2 17.6 124.9 0 126.6L0 0Z" fill="#000000"></path></g></svg>