<svg id="visual" viewBox="0 0 1280 675" width="1280" height="675" xmlns="http://www.w3.org/2000/svg" xmlns:xlink="http://www.w3.org/1999/xlink" version="1.1"><path d="M0 123L21.3 118.5C42.7 114 85.3 105 128 100.5C170.7 96 213.3 96 256 99.3C298.7 102.7 341.3 109.3 384 112.7C426.7 116 469.3 116 512 122.7C554.7 129.3 597.3 142.7 640 140.3C682.7 138 725.3 120 768 102C810.7 84 853.3 66 896 62.7C938.7 59.3 981.3 70.7 1024 73C1066.7 75.3 1109.3 68.7 1152 69.8C1194.7 71 1237.3 80 1258.7 84.5L1280 89L1280 0L1258.7 0C1237.3 0 1194.7 0 1152 0C1109.3 0 1066.7 0 1024 0C981.3 0 938.7 0 896 0C853.3 0 810.7 0 768 0C725.3 0 682.7 0 640 0C597.3 0 554.7 0 512 0C469.3 0 426.7 0 384 0C341.3 0 298.7 0 256 0C213.3 0 170.7 0 128 0C85.3 0 42.7 0 21.3 0L0 0Z" fill="#ffffff"></path><path d="M0 177L21.3 172.5C42.7 168 85.3 159 128 160C170.7 161 213.3 172 256 178.7C298.7 185.3 341.3 187.7 384 190C426.7 192.3 469.3 194.7 512 194.7C554.7 194.7 597.3 192.3 640 190C682.7 187.7 725.3 185.3 768 178.7C810.7 172 853.3 161 896 157.7C938.7 154.3 981.3 158.7 1024 156.3C1066.7 154 1109.3 145 1152 142.8C1194.7 140.7 1237.3 145.3 1258.7 147.7L1280 150L1280 87L1258.7 82.5C1237.3 78 1194.7 69 1152 67.8C1109.3 66.7 1066.7 73.3 1024 71C981.3 68.7 938.7 57.3 896 60.7C853.3 64 810.7 82 768 100C725.3 118 682.7 136 640 138.3C597.3 140.7 554.7 127.3 512 120.7C469.3 114 426.7 114 384 110.7C341.3 107.3 298.7 100.7 256 97.3C213.3 94 170.7 94 128 98.5C85.3 103 42.7 112 21.3 116.5L0 121Z" fill="#d0d0d0"></path><path d="M0 210L21.3 212.3C42.7 214.7 85.3 219.3 128 222.8C170.7 226.3 213.3 228.7 256 228.7C298.7 228.7 341.3 226.3 384 228.5C426.7 230.7 469.3 237.3 512 244C554.7 250.7 597.3 257.3 640 258.5C682.7 259.7 725.3 255.3 768 241.8C810.7 228.3 853.3 205.7 896 203.3C938.7 201 981.3 219 1024 216.8C1066.7 214.7 1109.3 192.3 1152 189C1194.7 185.7 1237.3 201.3 1258.7 209.2L1280 217L1280 148L1258.7 145.7C1237.3 143.3 1194.7 138.7 1152 140.8C1109.3 143 1066.7 152 1024 154.3C981.3 156.7 938.7 152.3 896 155.7C853.3 159 810.7 170 768 176.7C725.3 183.3 682.7 185.7 640 188C597.3 190.3 554.7 192.7 512 192.7C469.3 192.7 426.7 190.3 384 188C341.3 185.7 298.7 183.3 256 176.7C213.3 170 170.7 159 128 158C85.3 157 42.7 166 21.3 170.5L0 175Z" fill="#a2a2a2"></path><path d="M0 278L21.3 283.7C42.7 289.3 85.3 300.7 128 301.8C170.7 303 213.3 294 256 292.8C298.7 291.7 341.3 298.3 384 309.5C426.7 320.7 469.3 336.3 512 342C554.7 347.7 597.3 343.3 640 340C682.7 336.7 725.3 334.3 768 319.7C810.7 305 853.3 278 896 272.3C938.7 266.7 981.3 282.3 1024 288C1066.7 293.7 1109.3 289.3 1152 282.7C1194.7 276 1237.3 267 1258.7 262.5L1280 258L1280 215L1258.7 207.2C1237.3 199.3 1194.7 183.7 1152 187C1109.3 190.3 1066.7 212.7 1024 214.8C981.3 217 938.7 199 896 201.3C853.3 203.7 810.7 226.3 768 239.8C725.3 253.3 682.7 257.7 640 256.5C597.3 255.3 554.7 248.7 512 242C469.3 235.3 426.7 228.7 384 226.5C341.3 224.3 298.7 226.7 256 226.7C213.3 226.7 170.7 224.3 128 220.8C85.3 217.3 42.7 212.7 21.3 210.3L0 208Z" fill="#777777"></path><path d="M0 420L21.3 430C42.7 440 85.3 460 128 454.3C170.7 448.7 213.3 417.3 256 416.2C298.7 415 341.3 444 384 463.2C426.7 482.3 469.3 491.7 512 495.2C554.7 498.7 597.3 496.3 640 486.2C682.7 476 725.3 458 768 437.7C810.7 417.3 853.3 394.7 896 405.8C938.7 417 981.3 462 1024 482.3C1066.7 502.7 1109.3 498.3 1152 479.3C1194.7 460.3 1237.3 426.7 1258.7 409.8L1280 393L1280 256L1258.7 260.5C1237.3 265 1194.7 274 1152 280.7C1109.3 287.3 1066.7 291.7 1024 286C981.3 280.3 938.7 264.7 896 270.3C853.3 276 810.7 303 768 317.7C725.3 332.3 682.7 334.7 640 338C597.3 341.3 554.7 345.7 512 340C469.3 334.3 426.7 318.7 384 307.5C341.3 296.3 298.7 289.7 256 290.8C213.3 292 170.7 301 128 299.8C85.3 298.7 42.7 287.3 21.3 281.7L0 276Z" fill="#4e4e4e"></path><path d="M0 609L21.3 610C42.7 611 85.3 613 128 614C170.7 615 213.3 615 256 618.5C298.7 622 341.3 629 384 633.5C426.7 638 469.3 640 512 637.7C554.7 635.3 597.3 628.7 640 626.5C682.7 624.3 725.3 626.7 768 627.8C810.7 629 853.3 629 896 632.3C938.7 635.7 981.3 642.3 1024 639C1066.7 635.7 1109.3 622.3 1152 613.3C1194.7 604.3 1237.3 599.7 1258.7 597.3L1280 595L1280 391L1258.7 407.8C1237.3 424.7 1194.7 458.3 1152 477.3C1109.3 496.3 1066.7 500.7 1024 480.3C981.3 460 938.7 415 896 403.8C853.3 392.7 810.7 415.3 768 435.7C725.3 456 682.7 474 640 484.2C597.3 494.3 554.7 496.7 512 493.2C469.3 489.7 426.7 480.3 384 461.2C341.3 442 298.7 413 256 414.2C213.3 415.3 170.7 446.7 128 452.3C85.3 458 42.7 438 21.3 428L0 418Z" fill="#292929"></path><path d="M0 676L21.3 676C42.7 676 85.3 676 128 676C170.7 676 213.3 676 256 676C298.7 676 341.3 676 384 676C426.7 676 469.3 676 512 676C554.7 676 597.3 676 640 676C682.7 676 725.3 676 768 676C810.7 676 853.3 676 896 676C938.7 676 981.3 676 1024 676C1066.7 676 1109.3 676 1152 676C1194.7 676 1237.3 676 1258.7 676L1280 676L1280 593L1258.7 595.3C1237.3 597.7 1194.7 602.3 1152 611.3C1109.3 620.3 1066.7 633.7 1024 637C981.3 640.3 938.7 633.7 896 630.3C853.3 627 810.7 627 768 625.8C725.3 624.7 682.7 622.3 640 624.5C597.3 626.7 554.7 633.3 512 635.7C469.3 638 426.7 636 384 631.5C341.3 627 298.7 620 256 616.5C213.3 613 170.7 613 128 612C85.3 611 42.7 609 21.3 608L0 607Z" fill="#000000"></path></svg>